<svg width="486" height="216" viewBox="0 0 486 216" fill="none" xmlns="http://www.w3.org/2000/svg">
    <path d="M358 204.382C370.796 211.75 385.867 216 402 216C448.392 216 486 180.854 486 137.5C486 128.243 484.285 119.36 481.137 111.114C484.271 103.53 486 95.2167 486 86.5C486 50.8776 457.122 22 421.5 22C416.843 22 412.301 22.4935 407.924 23.4312C399.333 15.7029 387.966 11 375.5 11C369.429 11 363.618 12.1156 358.262 14.1529C345.443 5.2336 329.837 0 313 0C288.703 0 266.967 10.8996 252.475 28.0467C240.756 20.4154 226.877 16 212 16C195.818 16 180.817 21.2239 168.492 30.128C154.319 17.6149 135.566 10 115 10C76.5805 10 44.4865 36.5747 36.7674 72.0131C14.6106 86.0667 0 110.15 0 137.5C0 180.854 36.7127 216 82 216C104.148 216 124.245 207.594 139 193.933C153.755 207.594 173.852 216 196 216C218.8 216 239.427 207.092 254.289 192.713C269.514 207.092 290.644 216 314 216C330.133 216 345.204 211.75 358 204.382Z" fill="white"/>
</svg>