<svg width="300" height="192" viewBox="0 0 300 192" fill="none" xmlns="http://www.w3.org/2000/svg">
    <path d="M82 192C103.751 192 123.525 183.892 138.202 170.662C155.386 183.892 178.535 192 204 192C257.019 192 300 156.854 300 113.5C300 91.493 288.925 71.6011 271.085 57.3474C266.073 29.8781 241.079 9 211 9C205.065 9 199.329 9.81275 193.904 11.3285C181.973 4.13906 167.973 0 153 0C125.496 0 101.275 13.9662 87.1274 35.151C85.4317 35.0508 83.722 35 82 35C36.7127 35 0 70.1456 0 113.5C0 156.854 36.7127 192 82 192Z" fill="white"/>
</svg>