<svg width="570" height="209" viewBox="0 0 570 209" fill="none" xmlns="http://www.w3.org/2000/svg">
    <path d="M489.114 174.265C470.784 193.233 445.246 205 417 205C383.693 205 354.151 188.638 335.753 163.402C324.244 181.125 303.135 193 279 193C262.84 193 248.037 187.676 236.564 178.838C225.75 195.764 206.698 207 185 207C170.331 207 156.871 201.864 146.348 193.307C134.631 203.058 119.072 209 102 209C72.5114 209 47.5398 191.272 39.0762 166.809C17.1669 164.666 0 144.751 0 120.5C0 97.3557 15.6361 78.1606 36.108 74.5941C45.6381 55.1807 65.3492 41.67 88.2791 41.0242C98.3105 35.9058 109.796 33 122 33C151.03 33 175.991 49.4411 186.996 72.9942C193.013 69.2067 200.235 67 208 67C218.566 67 228.125 71.0853 235.012 77.6796C244.271 54.5237 268.53 38 297 38C309.84 38 321.824 41.361 331.961 47.1757C349.923 18.7992 381.298 0 417 0C439.657 0 460.572 7.57118 477.421 20.3565C479.582 20.1209 481.777 20 484 20C512.926 20 537.07 40.4687 542.741 67.7119C559.152 78.4189 570 96.9427 570 118C570 151.137 543.137 178 510 178C502.655 178 495.618 176.68 489.114 174.265Z" fill="white"/>
</svg>